<?xml version="1.0" standalone="no"?>
<!DOCTYPE svg PUBLIC "-//W3C//DTD SVG 20010904//EN"
 "http://www.w3.org/TR/2001/REC-SVG-20010904/DTD/svg10.dtd">
<svg version="1.0" xmlns="http://www.w3.org/2000/svg"
 width="7680.000000pt" height="4320.000000pt" viewBox="0 0 7680.000000 4320.000000"
 preserveAspectRatio="xMidYMid meet">

<g transform="translate(0.000000,4320.000000) scale(0.100000,-0.100000)"
fill="#000000" stroke="none">
<path d="M0 21600 l0 -21600 38400 0 38400 0 0 21600 0 21600 -38400 0 -38400
0 0 -21600z m51870 9285 c217 -9 454 -20 525 -25 72 -5 159 -11 195 -13 335
-20 464 -29 515 -37 33 -5 107 -12 165 -15 121 -6 397 -31 515 -45 44 -5 143
-17 220 -26 77 -9 174 -20 215 -25 41 -6 109 -14 150 -19 104 -12 249 -33 565
-84 268 -43 500 -87 725 -138 74 -17 147 -33 163 -35 15 -3 30 -9 33 -14 7
-12 -51 -11 -145 1 -66 9 -243 1 -346 -16 -114 -18 -269 -47 -316 -59 -31 -8
-83 -19 -115 -24 -143 -22 -349 -61 -454 -85 -111 -26 -241 -55 -350 -77 -123
-25 -269 -59 -430 -100 -181 -46 -281 -70 -330 -81 -90 -19 -247 -60 -343 -89
-55 -17 -127 -37 -160 -44 -34 -7 -105 -23 -157 -34 -91 -20 -194 -54 -215
-70 -5 -5 -35 -14 -65 -21 -239 -53 -394 -94 -445 -119 -33 -16 -103 -39 -155
-51 -163 -38 -344 -91 -355 -105 -5 -7 -26 -15 -45 -18 -19 -3 -62 -14 -95
-25 -33 -11 -123 -37 -199 -58 -77 -21 -170 -52 -206 -70 -36 -17 -97 -39
-136 -48 -159 -40 -307 -88 -359 -117 -16 -9 -55 -24 -85 -33 -189 -55 -269
-81 -300 -97 -47 -24 -155 -65 -210 -79 -117 -30 -214 -65 -239 -85 -14 -12
-37 -25 -51 -29 -14 -4 -61 -18 -105 -31 -227 -70 -275 -87 -275 -100 0 -8
-24 -21 -57 -31 -32 -9 -84 -25 -116 -36 -31 -10 -82 -26 -113 -34 -31 -8 -94
-34 -140 -59 -47 -24 -104 -50 -127 -56 -23 -6 -67 -20 -97 -31 -30 -11 -79
-26 -109 -34 -30 -8 -59 -21 -65 -29 -12 -16 -201 -95 -227 -95 -9 0 -57 -18
-106 -41 -117 -55 -354 -149 -374 -149 -8 0 -40 -13 -70 -29 -30 -17 -107 -50
-172 -75 -65 -25 -143 -59 -175 -75 -31 -17 -127 -57 -212 -89 -85 -32 -181
-74 -213 -91 -58 -33 -123 -59 -276 -111 -49 -16 -76 -29 -65 -32 15 -2 9 -8
-24 -26 -23 -12 -48 -22 -56 -22 -7 0 -40 -13 -74 -30 -34 -16 -71 -30 -82
-30 -20 0 -110 -38 -120 -50 -14 -18 -125 -72 -203 -99 -49 -17 -123 -49 -165
-71 -43 -22 -128 -62 -189 -89 -101 -44 -114 -48 -123 -33 -9 16 -9 16 -10 0
0 -26 -47 -53 -190 -113 -73 -30 -153 -68 -179 -84 -25 -16 -75 -41 -111 -55
-129 -49 -175 -72 -203 -98 -16 -15 -61 -37 -100 -51 -108 -37 -200 -77 -222
-98 -25 -22 -213 -110 -240 -112 -11 0 -43 -15 -71 -33 -29 -18 -117 -64 -195
-103 -79 -40 -160 -80 -179 -91 -19 -11 -78 -38 -130 -60 -133 -57 -160 -71
-160 -86 0 -11 -29 -27 -55 -30 -5 0 -44 -17 -85 -37 -41 -20 -87 -39 -102
-42 -15 -4 -32 -13 -39 -21 -6 -8 -18 -14 -25 -14 -8 0 -14 -4 -14 -10 0 -11
-169 -94 -211 -104 -15 -3 -51 -22 -80 -42 -30 -20 -92 -53 -139 -73 -47 -20
-118 -58 -158 -84 -40 -26 -96 -56 -125 -66 -93 -34 -190 -84 -194 -101 -5
-17 -62 -50 -87 -50 -7 0 -33 -11 -57 -24 -24 -14 -70 -34 -102 -46 -32 -12
-61 -28 -64 -36 -6 -17 -242 -136 -258 -130 -7 2 -19 -3 -28 -12 -29 -31 -45
-41 -168 -103 -68 -34 -138 -72 -156 -86 -18 -14 -65 -39 -105 -57 -101 -44
-150 -71 -184 -99 -40 -32 -123 -77 -144 -77 -9 0 -57 -25 -106 -56 -49 -31
-123 -72 -164 -91 -41 -20 -103 -55 -136 -79 -34 -24 -68 -44 -75 -44 -8 0
-28 -9 -45 -19 -17 -10 -62 -33 -100 -49 -38 -17 -69 -36 -69 -43 0 -13 -29
-29 -190 -106 -55 -26 -104 -54 -108 -61 -5 -7 -40 -29 -80 -48 -39 -20 -99
-54 -133 -75 -34 -22 -64 -39 -67 -39 -3 0 -3 10 0 23 3 14 -1 11 -14 -12 -18
-34 -70 -65 -196 -120 -39 -17 -57 -32 -62 -48 -3 -14 -13 -23 -24 -23 -11 0
-50 -18 -89 -40 -38 -22 -75 -40 -83 -40 -8 0 -36 -18 -62 -40 -27 -22 -76
-54 -110 -71 -34 -17 -77 -40 -95 -51 -18 -11 -39 -18 -46 -15 -7 3 -28 -10
-46 -29 -18 -19 -74 -55 -124 -80 -50 -25 -100 -54 -111 -64 -23 -21 -165
-101 -216 -123 -20 -8 -51 -28 -70 -44 -40 -34 -210 -133 -230 -133 -8 0 -26
-13 -42 -29 -15 -15 -72 -51 -126 -79 -54 -29 -104 -59 -111 -67 -7 -8 -17
-15 -23 -15 -6 0 -20 -9 -31 -19 -12 -11 -62 -40 -111 -64 -50 -25 -102 -56
-115 -69 -31 -29 -202 -128 -222 -128 -9 0 -27 -11 -40 -25 -14 -14 -72 -50
-129 -81 -57 -31 -120 -68 -139 -83 -48 -37 -147 -95 -190 -110 -19 -6 -51
-26 -70 -44 -38 -36 -195 -129 -220 -131 -9 -1 -31 -16 -50 -33 -19 -18 -64
-47 -100 -64 -36 -18 -108 -60 -160 -94 -97 -63 -121 -77 -200 -115 -25 -12
-52 -30 -60 -40 -22 -26 -219 -142 -230 -135 -5 3 -24 -10 -42 -29 -18 -19
-73 -55 -123 -81 -49 -25 -97 -54 -105 -63 -16 -19 -108 -76 -198 -123 -29
-15 -67 -39 -85 -54 -17 -15 -77 -54 -132 -87 -55 -34 -122 -76 -150 -93 -27
-18 -82 -48 -121 -68 -39 -20 -78 -47 -88 -62 -9 -14 -40 -37 -69 -50 -100
-48 -182 -95 -197 -114 -8 -10 -49 -38 -90 -61 -41 -23 -90 -54 -109 -68 -38
-31 -140 -90 -223 -130 -32 -15 -57 -32 -58 -39 0 -16 -62 -63 -83 -63 -16 0
-151 -82 -217 -131 -19 -14 -66 -43 -105 -64 -38 -20 -83 -50 -100 -65 -16
-15 -52 -39 -80 -52 -98 -49 -185 -99 -185 -108 0 -13 -86 -70 -119 -80 -15
-4 -72 -36 -127 -71 -54 -36 -124 -77 -154 -93 -30 -16 -77 -45 -105 -65 -50
-37 -233 -141 -247 -141 -4 0 -12 -9 -18 -19 -10 -21 -119 -91 -140 -91 -6 0
-51 -26 -98 -59 -48 -32 -121 -78 -162 -102 -41 -24 -93 -58 -114 -76 -22 -18
-60 -43 -85 -55 -47 -22 -73 -40 -221 -146 -47 -34 -92 -62 -101 -62 -9 0 -32
-14 -50 -30 -40 -36 -115 -90 -124 -90 -19 0 -108 -68 -116 -87 -5 -13 -16
-23 -25 -23 -20 0 -150 -84 -224 -144 -30 -25 -82 -63 -115 -84 -33 -22 -71
-51 -84 -65 -13 -14 -52 -42 -86 -62 -35 -21 -78 -51 -96 -68 -83 -76 -173
-147 -187 -147 -8 0 -32 -20 -54 -45 -22 -24 -68 -63 -104 -86 -35 -23 -64
-48 -64 -55 0 -17 -69 -82 -95 -90 -11 -3 -52 -38 -91 -77 -40 -40 -90 -87
-113 -106 -23 -18 -41 -39 -41 -46 0 -7 -19 -29 -42 -49 -67 -56 -88 -77 -128
-132 -21 -28 -57 -66 -79 -83 -23 -18 -41 -41 -41 -52 0 -24 -87 -139 -106
-139 -8 0 -14 -7 -14 -16 0 -8 -17 -46 -38 -82 -21 -37 -47 -89 -57 -116 -10
-28 -29 -59 -41 -71 -15 -14 -25 -38 -29 -66 -3 -24 -12 -64 -20 -89 -19 -59
-23 -231 -6 -295 7 -27 15 -70 18 -95 3 -25 10 -50 15 -57 5 -7 7 -20 4 -30
-3 -10 2 -34 13 -53 10 -19 33 -78 50 -130 18 -52 37 -105 43 -117 6 -12 12
-30 13 -40 3 -29 50 -120 78 -151 10 -10 17 -26 17 -35 0 -9 16 -49 35 -88 19
-40 35 -79 35 -87 0 -8 16 -34 35 -58 19 -23 35 -47 35 -53 0 -25 139 -284
268 -501 25 -41 66 -113 92 -160 26 -47 75 -129 109 -183 34 -54 65 -106 68
-115 3 -9 29 -51 58 -92 29 -41 60 -91 70 -110 33 -65 456 -712 656 -1005 269
-392 670 -961 737 -1044 33 -41 34 -43 8 -26 -15 10 -31 26 -37 36 -14 28
-218 194 -334 274 -218 149 -462 312 -507 338 -27 15 -48 33 -48 40 0 7 -23
25 -51 41 -64 36 -159 106 -159 117 0 5 -5 9 -11 9 -14 0 -46 24 -324 246
-132 106 -256 208 -274 228 -19 20 -40 36 -45 36 -6 0 -44 31 -84 69 -40 38
-76 71 -81 73 -18 6 -264 235 -490 454 -168 163 -258 256 -442 455 -213 232
-263 289 -279 317 -8 15 -29 40 -46 57 -17 16 -58 64 -90 105 -32 41 -61 77
-64 80 -6 6 -93 119 -212 278 -42 57 -74 110 -72 117 3 7 -7 21 -23 30 -26 16
-83 95 -83 116 0 17 -52 92 -81 116 -16 14 -29 32 -29 41 0 8 -20 48 -45 88
-25 39 -45 78 -45 86 0 7 -13 29 -29 48 -27 33 -56 87 -124 225 -16 33 -37 69
-47 80 -10 11 -46 81 -81 155 -34 74 -71 144 -80 155 -20 22 -128 247 -132
274 -1 9 -12 26 -24 38 -22 22 -63 106 -63 128 0 7 -16 44 -35 81 -19 38 -35
72 -35 76 0 4 -16 34 -35 67 -19 32 -35 65 -35 72 0 13 -32 82 -105 229 -18
36 -54 115 -80 175 -25 61 -75 169 -111 242 -35 72 -64 141 -64 153 0 12 -13
50 -29 84 -55 118 -101 224 -101 234 0 5 -14 41 -31 78 -18 38 -46 101 -64
140 -18 39 -36 81 -40 95 -12 38 -88 213 -149 343 -31 66 -55 125 -52 131 5
15 -52 168 -81 215 -11 19 -25 51 -31 70 -18 68 -83 231 -122 309 -22 44 -40
85 -40 91 0 7 -20 63 -45 124 -25 62 -45 127 -45 145 0 22 -9 40 -29 59 -37
35 -51 64 -44 91 6 22 -7 60 -95 281 -66 168 -110 285 -138 368 -13 40 -30 83
-38 95 -24 37 -67 153 -75 204 -8 45 -39 133 -91 263 -68 170 -197 389 -284
478 -22 24 -66 57 -97 73 -61 33 -123 89 -98 89 40 0 399 -137 572 -219 59
-28 110 -51 112 -51 9 0 242 -114 275 -135 19 -12 93 -52 164 -89 71 -38 152
-83 180 -100 28 -18 83 -50 121 -71 128 -70 569 -349 823 -521 40 -27 110 -74
156 -104 45 -30 129 -86 187 -124 57 -38 122 -82 144 -97 95 -68 245 -169 348
-236 62 -39 126 -83 143 -97 17 -14 62 -44 100 -67 38 -23 112 -70 165 -104
52 -35 117 -75 144 -89 27 -15 64 -38 83 -53 19 -14 92 -56 161 -93 69 -37
146 -78 171 -93 25 -14 90 -44 145 -67 55 -22 132 -56 170 -74 67 -32 172 -64
242 -74 25 -3 43 3 81 31 73 54 140 102 212 150 36 25 76 57 90 72 14 15 48
38 75 52 28 14 72 42 99 61 27 20 95 66 150 102 56 36 121 80 146 98 25 18 77
54 116 80 108 71 348 235 444 301 47 33 137 94 200 136 63 42 126 85 140 96
14 11 68 49 120 85 52 35 118 80 145 99 28 19 78 54 113 77 34 24 95 67 135
96 39 30 86 61 102 69 17 9 48 30 70 48 22 18 74 55 115 83 41 28 113 79 160
112 46 34 107 77 135 96 27 19 93 66 145 104 52 38 142 101 200 141 58 39 125
88 150 109 25 20 77 58 115 83 39 25 95 65 126 89 31 24 99 73 150 110 103 74
327 238 417 306 31 23 86 63 122 87 36 24 94 67 128 95 35 28 94 72 130 97 37
25 88 62 113 83 25 21 59 46 75 56 17 11 57 40 90 66 32 26 136 104 229 173
94 69 197 147 229 173 33 26 83 63 111 82 29 19 70 50 91 68 40 35 245 190
323 246 24 17 71 54 104 82 33 29 71 58 86 65 14 7 46 30 71 50 25 20 128 100
230 178 102 78 210 161 240 186 70 56 167 131 250 191 36 27 83 64 105 83 22
20 80 65 129 101 48 36 116 88 150 115 33 28 76 61 94 74 18 13 48 36 65 53
18 16 61 50 97 75 36 25 83 61 105 80 22 19 97 78 166 131 69 53 154 120 188
147 35 28 100 79 146 115 46 36 106 83 134 105 27 22 69 55 93 73 24 17 77 59
118 92 41 33 107 85 145 115 39 30 104 81 145 115 41 33 102 80 135 105 33 25
94 72 135 105 77 61 88 69 263 204 56 44 127 100 157 126 56 47 154 123 282
216 38 29 84 65 101 81 18 17 94 77 170 134 76 57 159 121 185 141 26 21 85
66 131 100 46 35 100 77 120 94 34 29 138 108 242 184 79 58 136 102 207 160
37 31 86 66 107 79 22 13 54 37 70 52 17 15 65 52 107 81 42 29 122 87 177
128 138 103 171 127 259 188 43 29 91 66 107 81 17 16 41 34 55 41 14 7 86 57
160 110 74 53 160 113 190 133 30 21 73 50 95 65 54 39 281 190 400 267 96 63
264 167 355 221 52 32 129 78 170 103 41 26 118 69 170 95 52 27 106 57 120
66 50 35 387 203 534 267 204 88 261 110 471 181 200 67 266 84 535 137 102
20 201 41 220 45 65 17 204 48 265 59 59 11 238 42 345 61 191 33 287 52 302
60 10 6 29 10 43 10 15 0 101 13 193 29 170 30 349 57 479 72 40 5 92 14 115
19 24 6 59 13 79 15 19 2 62 9 95 15 32 5 145 22 249 35 267 36 321 43 480 60
77 8 172 19 210 24 39 5 79 9 90 10 11 0 45 4 75 10 80 14 298 41 425 52 61 5
157 14 215 19 58 5 213 16 345 24 132 9 274 20 315 25 41 6 176 15 300 21 124
6 252 13 285 17 33 3 103 7 155 10 52 2 140 8 195 13 55 5 213 10 350 11 138
1 261 5 275 9 50 15 1187 11 1590 -5z m4340 -2593 c-14 -9 -41 -32 -61 -49
-20 -18 -47 -33 -60 -33 -13 0 -69 -12 -124 -26 -55 -14 -136 -34 -180 -44
-76 -17 -95 -22 -140 -40 -46 -18 -161 -50 -179 -50 -10 0 -44 -9 -75 -19 -57
-20 -194 -62 -331 -101 -41 -12 -86 -26 -100 -30 -140 -45 -401 -126 -510
-158 -191 -57 -312 -93 -335 -102 -23 -8 -283 -91 -365 -116 -30 -9 -82 -25
-114 -35 -33 -11 -64 -19 -69 -19 -5 0 -23 -6 -40 -14 -42 -18 -119 -36 -129
-30 -4 3 -8 1 -8 -4 0 -8 -53 -36 -70 -37 -3 0 -31 -11 -63 -24 -32 -13 -61
-21 -64 -17 -3 3 -12 1 -20 -5 -7 -6 -13 -8 -13 -4 0 4 -11 0 -24 -8 -12 -9
-56 -25 -97 -37 -41 -12 -83 -26 -94 -31 -19 -8 -121 -44 -137 -48 -10 -2 -16
-4 -113 -35 -44 -14 -87 -26 -95 -26 -8 0 -21 -9 -28 -20 -9 -15 -23 -20 -55
-20 -24 0 -47 -4 -52 -9 -6 -5 -59 -26 -120 -46 -109 -36 -164 -57 -197 -75
-10 -6 -30 -10 -46 -10 -15 0 -32 -4 -37 -9 -12 -10 -149 -60 -185 -67 -14 -3
-45 -15 -70 -26 -24 -12 -54 -23 -66 -24 -12 -1 -35 -9 -50 -17 -16 -8 -56
-21 -89 -28 -33 -7 -66 -19 -73 -26 -7 -7 -32 -17 -55 -23 -23 -6 -51 -15 -62
-20 -22 -11 -116 -44 -185 -65 -59 -18 -112 -38 -129 -49 -8 -5 -16 -4 -22 5
-6 9 -9 10 -9 2 0 -6 -17 -17 -37 -24 -21 -7 -47 -18 -58 -25 -11 -7 -44 -19
-74 -28 -56 -17 -204 -71 -233 -87 -10 -5 -26 -9 -36 -9 -10 0 -22 -4 -28 -10
-5 -5 -18 -11 -29 -13 -11 -2 -37 -12 -59 -21 -21 -10 -41 -15 -43 -12 -3 3
-18 -1 -32 -8 -31 -16 -49 -24 -156 -65 -44 -17 -85 -31 -92 -31 -7 0 -28 -9
-48 -20 -20 -11 -43 -20 -52 -20 -9 0 -27 -9 -39 -21 -12 -11 -32 -21 -45 -23
-24 -3 -126 -32 -164 -46 -11 -4 -43 -17 -72 -29 -28 -12 -60 -21 -71 -21 -11
0 -25 -7 -32 -15 -7 -8 -38 -22 -69 -31 -31 -10 -78 -27 -106 -39 -27 -12 -88
-35 -135 -50 -47 -16 -94 -34 -105 -41 -11 -7 -49 -20 -85 -29 -36 -10 -85
-26 -110 -37 -53 -24 -117 -48 -144 -53 -10 -3 -24 -9 -32 -16 -8 -6 -14 -9
-14 -6 0 3 -36 -12 -80 -34 -44 -21 -83 -39 -87 -39 -3 0 -62 -21 -131 -46
-69 -26 -135 -46 -148 -46 -13 0 -24 -4 -24 -8 0 -11 -151 -71 -161 -64 -5 3
-9 2 -9 -3 0 -4 -19 -14 -42 -21 -23 -7 -58 -20 -77 -29 -20 -9 -39 -15 -43
-15 -5 1 -8 -2 -8 -8 0 -5 -8 -10 -17 -10 -26 0 -92 -34 -93 -47 0 -8 -14 -13
-35 -13 -19 0 -49 -6 -67 -14 -60 -25 -103 -38 -123 -39 -11 -1 -26 -9 -33
-19 -7 -10 -17 -16 -22 -13 -5 3 -11 1 -15 -5 -3 -5 -14 -10 -23 -10 -10 0
-34 -11 -55 -25 -20 -14 -43 -25 -50 -24 -6 2 -29 -5 -51 -14 -21 -9 -42 -17
-46 -17 -6 0 -58 -20 -125 -50 -50 -22 -160 -65 -269 -105 -65 -25 -123 -48
-130 -53 -6 -5 -24 -12 -40 -16 -15 -4 -47 -16 -70 -26 -39 -18 -169 -69 -191
-74 -5 -2 -36 -15 -68 -30 -32 -14 -62 -26 -67 -26 -6 0 -18 -4 -28 -10 -44
-24 -114 -50 -122 -45 -5 3 -11 1 -15 -5 -4 -6 -12 -7 -18 -4 -7 4 -9 4 -5 0
13 -15 -33 -47 -61 -44 -16 1 -35 -2 -42 -8 -8 -6 -48 -23 -89 -39 -41 -16
-79 -32 -85 -36 -5 -3 -28 -12 -50 -19 -22 -7 -46 -17 -53 -23 -18 -14 -112
-46 -138 -47 -11 0 -25 -5 -32 -12 -7 -7 -12 -9 -12 -4 0 4 -12 -2 -26 -13
-15 -12 -33 -21 -40 -21 -8 0 -57 -20 -110 -45 -52 -25 -99 -45 -105 -45 -5 0
-9 -5 -9 -10 0 -6 -6 -10 -12 -9 -20 3 -68 -11 -128 -39 -30 -14 -64 -28 -75
-32 -11 -4 -45 -19 -75 -33 -30 -14 -68 -29 -85 -33 -16 -4 -33 -11 -36 -16
-3 -5 -48 -24 -101 -42 -52 -19 -106 -40 -119 -48 -13 -8 -58 -26 -100 -39
-52 -16 -79 -30 -85 -44 -6 -13 -19 -20 -39 -21 -16 -1 -72 -20 -123 -42 -51
-22 -95 -41 -97 -42 -3 0 -20 -7 -39 -15 -20 -8 -40 -15 -45 -15 -6 0 -15 -9
-21 -20 -6 -11 -21 -20 -34 -20 -13 0 -49 -11 -80 -25 -31 -14 -59 -25 -64
-26 -8 -2 -19 -6 -107 -42 -139 -58 -208 -88 -240 -103 -18 -8 -39 -17 -47
-18 -7 -2 -26 -8 -41 -15 -16 -6 -32 -9 -37 -6 -5 3 -12 0 -15 -6 -9 -13 -152
-79 -174 -79 -9 0 -25 -7 -35 -15 -10 -8 -23 -12 -27 -9 -5 3 -9 0 -9 -6 0 -7
-8 -9 -20 -5 -13 4 -20 2 -20 -7 0 -17 -47 -38 -68 -31 -9 3 -14 2 -9 -2 6 -7
-59 -39 -98 -49 -5 -1 -25 -10 -43 -19 -18 -10 -36 -15 -41 -13 -5 3 -14 -1
-21 -9 -7 -8 -18 -15 -24 -15 -7 0 -22 -9 -35 -21 -12 -12 -33 -22 -47 -23
-13 0 -24 -5 -24 -9 0 -5 -14 -7 -30 -5 -17 1 -34 -2 -38 -8 -10 -16 -162 -85
-172 -79 -5 3 -10 2 -12 -2 -4 -9 -89 -53 -109 -57 -8 -1 -36 -12 -63 -24 -27
-12 -55 -22 -62 -22 -8 0 -14 -4 -14 -10 0 -5 -5 -10 -11 -10 -12 0 -91 -34
-132 -56 -15 -9 -34 -13 -42 -10 -8 3 -18 -1 -22 -7 -7 -11 -144 -72 -178 -80
-5 -1 -16 -8 -23 -15 -8 -7 -18 -10 -23 -7 -5 4 -9 2 -9 -2 0 -5 -20 -15 -45
-22 -25 -7 -45 -18 -45 -23 0 -6 -6 -8 -14 -5 -7 3 -19 0 -25 -6 -6 -6 -11 -8
-11 -4 0 4 -9 -2 -20 -13 -11 -11 -29 -20 -40 -20 -12 0 -30 -9 -42 -20 -13
-11 -36 -20 -54 -20 -18 0 -34 -4 -36 -8 -5 -13 -139 -73 -149 -67 -5 4 -9 2
-9 -4 0 -5 -17 -15 -37 -22 -21 -6 -51 -19 -68 -27 -16 -9 -33 -15 -37 -14 -5
1 -8 -3 -8 -8 0 -6 -7 -10 -15 -10 -9 0 -30 -8 -48 -17 -18 -9 -38 -16 -44
-15 -7 2 -13 -2 -13 -9 0 -6 -7 -9 -15 -5 -8 3 -18 -1 -22 -8 -5 -8 -39 -26
-78 -41 -77 -29 -136 -55 -205 -91 -41 -20 -113 -43 -147 -46 -7 -1 -14 -7
-17 -15 -5 -12 -43 -32 -74 -39 -7 -1 -24 -9 -37 -18 -13 -9 -29 -16 -36 -16
-6 0 -22 -9 -36 -20 -15 -11 -34 -18 -43 -15 -17 5 -98 -32 -150 -68 -13 -9
-33 -17 -43 -17 -10 0 -25 -7 -34 -15 -8 -8 -19 -13 -24 -10 -5 4 -9 2 -9 -4
0 -6 -6 -8 -14 -5 -8 3 -19 -3 -25 -15 -7 -11 -26 -23 -46 -27 -19 -3 -35 -10
-35 -15 0 -5 -7 -9 -15 -9 -8 0 -15 -4 -15 -10 0 -5 -6 -10 -13 -10 -7 0 -33
-10 -58 -22 -24 -12 -52 -21 -62 -20 -10 0 -34 -10 -54 -23 -19 -14 -40 -22
-45 -19 -5 3 -16 -2 -23 -12 -8 -11 -15 -14 -15 -9 0 6 -4 4 -9 -3 -4 -7 -15
-14 -23 -16 -9 -1 -23 -8 -32 -15 -8 -7 -21 -9 -27 -5 -8 5 -9 3 -4 -6 6 -10
3 -12 -14 -7 -15 3 -24 0 -28 -9 -3 -8 -12 -13 -20 -10 -7 3 -16 -1 -19 -9 -4
-8 -10 -15 -14 -15 -5 0 -19 -4 -32 -9 -13 -5 -26 -8 -29 -7 -4 0 -15 -6 -25
-15 -11 -9 -46 -26 -79 -39 -33 -13 -69 -29 -80 -37 -11 -7 -27 -13 -36 -13
-9 0 -24 -9 -33 -19 -10 -11 -28 -21 -40 -23 -11 -2 -25 -13 -31 -25 -10 -23
-25 -31 -25 -15 0 15 -59 10 -62 -5 -2 -12 -95 -58 -133 -67 -5 -1 -22 -10
-37 -20 -15 -10 -33 -14 -39 -10 -8 5 -9 3 -4 -6 6 -10 4 -12 -8 -7 -24 9 -47
-2 -47 -22 0 -26 -10 -32 -33 -20 -13 7 -17 7 -13 1 3 -6 2 -13 -4 -17 -5 -3
-10 -1 -10 4 0 6 -4 11 -10 11 -5 0 -10 -7 -10 -15 0 -8 -8 -15 -18 -15 -10 0
-22 -3 -26 -7 -4 -5 -11 -8 -14 -9 -7 -1 -41 -15 -84 -34 -13 -6 -38 -19 -55
-30 -18 -11 -33 -18 -33 -15 0 3 -17 -5 -37 -17 -21 -11 -56 -29 -78 -40 -22
-11 -48 -24 -57 -29 -10 -5 -24 -9 -32 -9 -8 0 -16 -3 -18 -7 -5 -12 -84 -53
-102 -53 -9 0 -16 -4 -16 -10 0 -5 -4 -10 -10 -10 -5 0 -39 -13 -73 -30 -35
-16 -71 -30 -80 -30 -10 0 -17 -4 -17 -9 0 -5 -9 -13 -20 -16 -11 -3 -20 -13
-20 -21 0 -17 -40 -19 -41 -1 0 9 -2 9 -5 0 -3 -7 -21 -17 -40 -23 -19 -6 -32
-16 -29 -21 4 -5 -6 -9 -20 -9 -14 0 -24 -4 -20 -9 3 -5 -12 -15 -32 -21 -21
-7 -48 -19 -60 -26 -18 -11 -23 -12 -23 -2 -1 9 -4 9 -13 -2 -13 -16 -103 -64
-110 -59 -2 2 -11 -2 -20 -9 -9 -8 -21 -11 -27 -7 -5 3 -13 -1 -16 -9 -3 -9
-15 -16 -25 -16 -10 0 -19 -5 -19 -11 0 -6 -7 -8 -15 -5 -9 3 -18 -1 -21 -9
-4 -8 -12 -15 -19 -15 -7 0 -29 -11 -49 -25 -20 -14 -47 -27 -61 -31 -13 -3
-29 -12 -35 -19 -6 -8 -24 -17 -40 -20 -16 -3 -34 -12 -40 -20 -6 -8 -17 -12
-24 -9 -6 2 -21 -4 -32 -15 -11 -10 -30 -22 -42 -25 -12 -4 -22 -11 -22 -16 0
-5 -7 -7 -15 -4 -8 4 -15 2 -15 -4 0 -6 -17 -16 -37 -22 -58 -18 -93 -34 -93
-42 0 -4 -6 -5 -14 -2 -7 3 -16 -2 -19 -10 -4 -9 -16 -16 -27 -16 -11 0 -20
-4 -20 -9 0 -5 -13 -11 -29 -14 -16 -3 -35 -12 -43 -20 -8 -8 -29 -18 -47 -22
-18 -4 -35 -13 -38 -20 -2 -8 -11 -11 -18 -8 -8 2 -24 -5 -36 -16 -13 -12 -33
-21 -46 -21 -13 0 -23 -4 -23 -8 0 -5 -25 -22 -56 -38 -182 -95 -264 -134
-301 -146 -24 -7 -43 -18 -43 -25 0 -7 -3 -12 -7 -12 -20 4 -73 -15 -73 -25 0
-11 -86 -56 -108 -56 -7 0 -12 -5 -12 -11 0 -5 -4 -7 -10 -4 -5 3 -10 -1 -10
-9 0 -15 -15 -21 -65 -29 -29 -5 -75 -29 -75 -39 0 -4 -5 -8 -11 -8 -6 0 -22
-9 -36 -20 -14 -11 -34 -20 -44 -20 -9 0 -19 -4 -21 -9 -3 -8 -169 -90 -183
-91 -3 0 -21 -9 -40 -20 -20 -11 -42 -20 -50 -20 -8 0 -15 -4 -15 -10 0 -5 -9
-10 -20 -10 -11 0 -20 -4 -20 -9 0 -5 -13 -14 -29 -21 -16 -6 -37 -19 -48 -28
-24 -22 -119 -73 -130 -70 -8 2 -64 -22 -73 -32 -3 -3 -67 -36 -143 -75 -77
-38 -150 -79 -163 -91 -13 -13 -34 -25 -46 -29 -47 -13 -161 -66 -166 -77 -2
-5 -12 -8 -23 -8 -10 0 -19 -4 -19 -10 0 -5 -9 -10 -20 -10 -11 0 -20 -4 -20
-10 0 -5 -9 -10 -20 -10 -11 0 -20 -4 -20 -9 0 -6 -22 -21 -50 -35 -27 -14
-50 -23 -50 -21 0 7 -113 -57 -132 -75 -9 -8 -42 -24 -72 -34 -31 -11 -56 -23
-56 -28 0 -5 -5 -6 -10 -3 -6 4 -24 -5 -40 -18 -16 -14 -45 -30 -64 -37 -19
-6 -37 -17 -40 -25 -3 -8 -13 -15 -22 -15 -14 0 -42 -10 -114 -44 -14 -6 -27
-13 -30 -16 -3 -3 -31 -18 -62 -35 -32 -16 -58 -32 -58 -36 0 -4 -8 -9 -17
-12 -10 -4 -36 -17 -58 -31 -22 -14 -53 -32 -68 -40 -15 -8 -43 -24 -62 -36
-20 -13 -35 -17 -35 -10 0 6 -5 8 -10 5 -6 -4 -7 -11 -4 -17 5 -7 1 -9 -9 -5
-11 4 -17 1 -17 -9 0 -11 -6 -13 -20 -9 -12 4 -20 2 -20 -5 0 -7 -7 -9 -16 -6
-8 3 -12 2 -9 -4 3 -5 -5 -12 -19 -16 -13 -3 -27 -13 -30 -21 -4 -9 -14 -13
-26 -10 -13 3 -20 0 -20 -10 0 -9 -6 -13 -15 -9 -8 3 -27 -5 -42 -17 -32 -25
-44 -32 -161 -94 -47 -25 -102 -55 -121 -67 -20 -11 -76 -41 -126 -66 -49 -24
-92 -47 -95 -50 -3 -3 -18 -12 -35 -20 -16 -8 -49 -27 -72 -42 -23 -15 -45
-28 -49 -28 -4 0 -15 -6 -23 -14 -9 -7 -40 -21 -69 -31 -32 -10 -50 -21 -45
-28 4 -6 0 -8 -10 -4 -12 4 -17 1 -17 -9 0 -10 -6 -14 -14 -11 -8 3 -17 -1
-20 -9 -3 -8 -15 -14 -26 -14 -11 0 -20 -5 -20 -11 0 -6 -8 -8 -18 -5 -12 4
-26 -2 -38 -15 -10 -12 -47 -34 -82 -50 -34 -16 -65 -35 -68 -44 -3 -8 -11
-15 -18 -15 -6 0 -33 -11 -60 -25 -27 -13 -54 -22 -60 -18 -6 3 -8 3 -4 -2 8
-9 -20 -40 -29 -31 -3 3 -12 -2 -19 -12 -7 -9 -16 -17 -21 -17 -4 -1 -31 -13
-60 -28 -29 -15 -59 -27 -67 -27 -8 0 -16 -3 -18 -7 -7 -16 -68 -53 -107 -65
-23 -7 -41 -19 -41 -26 0 -7 -8 -16 -17 -19 -10 -4 -24 -13 -31 -20 -7 -7 -25
-16 -40 -20 -15 -3 -29 -9 -32 -13 -3 -3 -39 -23 -80 -43 -81 -40 -98 -50
-147 -84 -17 -13 -36 -23 -41 -23 -6 0 -12 -4 -14 -8 -5 -12 -96 -65 -175
-102 -40 -18 -73 -37 -73 -41 0 -5 -7 -6 -15 -3 -8 4 -17 -1 -21 -10 -3 -9
-11 -16 -17 -16 -5 0 -25 -11 -43 -25 -18 -14 -36 -25 -40 -25 -4 0 -22 -11
-40 -25 -18 -14 -36 -25 -40 -25 -15 0 -99 -44 -118 -62 -11 -10 -24 -18 -29
-18 -6 0 -25 -11 -43 -25 -18 -14 -39 -25 -46 -26 -7 0 -33 -13 -58 -29 -25
-16 -65 -40 -90 -53 -25 -14 -61 -34 -80 -45 -19 -11 -53 -30 -75 -42 -22 -12
-69 -43 -105 -68 -59 -41 -71 -45 -130 -47 -36 -1 -58 0 -50 4 8 3 26 13 40
22 117 76 173 111 197 121 15 7 66 35 113 64 47 28 132 77 190 109 58 32 116
65 130 75 14 9 66 38 115 65 50 27 164 91 255 144 91 52 219 124 285 161 117
65 690 385 770 430 22 12 96 53 165 90 69 37 143 78 165 90 43 24 330 181 430
235 33 18 114 62 180 97 137 74 251 135 345 185 36 19 92 49 125 68 33 18 92
50 130 70 339 182 534 286 610 326 50 25 200 104 335 174 457 239 693 361
1330 686 868 443 1976 988 2870 1412 47 22 135 63 195 92 61 29 171 81 245
115 74 35 176 82 225 106 50 23 173 81 275 128 435 199 680 311 760 346 47 21
105 47 130 58 405 183 464 209 645 287 17 7 91 39 165 72 162 72 433 191 475
208 17 7 89 39 160 70 267 117 351 154 405 175 30 13 73 31 95 40 45 20 215
94 380 165 61 26 130 55 155 65 25 9 101 42 170 73 69 30 314 135 545 232 231
97 434 183 450 190 17 7 68 29 115 48 47 19 157 65 245 102 88 37 196 82 240
100 81 33 217 89 400 165 140 58 279 115 500 204 105 42 199 81 210 86 37 17
259 108 465 190 113 44 230 92 260 105 84 35 839 335 846 335 3 0 20 7 37 14
42 20 273 111 367 146 41 15 152 58 245 95 216 85 422 165 550 214 55 21 177
68 270 104 94 36 188 72 210 80 22 8 108 40 190 71 83 31 197 75 255 96 58 21
130 48 160 60 30 12 66 25 80 30 14 4 68 25 120 45 52 20 149 56 215 79 66 24
131 48 145 54 14 6 126 48 250 93 124 45 261 95 305 111 44 17 91 34 105 38
14 4 81 28 150 53 381 136 714 254 855 302 39 13 129 45 200 70 648 230 2219
743 2749 896 76 23 148 44 160 49 12 4 50 16 86 25 36 9 83 23 105 30 43 14
169 50 290 84 69 18 146 40 256 71 163 46 452 119 469 119 10 0 6 -6 -10 -17z
m-200 -232 c0 -5 -5 -10 -11 -10 -5 0 -7 5 -4 10 3 6 8 10 11 10 2 0 4 -4 4
-10z m-630 -1100 c0 -5 -4 -10 -10 -10 -5 0 -10 5 -10 10 0 6 5 10 10 10 6 0
10 -4 10 -10z m-320 -539 c0 -6 -4 -13 -10 -16 -5 -3 -10 1 -10 9 0 9 5 16 10
16 6 0 10 -4 10 -9z m-350 -171 c0 -5 -5 -10 -11 -10 -5 0 -7 5 -4 10 3 6 8
10 11 10 2 0 4 -4 4 -10z m-34056 -671 c34 -57 163 -264 286 -459 123 -195
244 -389 270 -430 26 -41 57 -91 69 -110 12 -19 71 -111 130 -205 169 -267
300 -473 356 -560 28 -44 87 -135 131 -203 43 -68 112 -173 152 -233 39 -60
72 -112 72 -114 0 -3 44 -72 98 -154 53 -82 110 -169 125 -193 16 -24 37 -56
48 -73 11 -16 69 -106 129 -200 60 -93 122 -188 139 -210 17 -22 49 -71 72
-110 23 -38 93 -146 155 -240 63 -93 172 -258 243 -365 71 -107 150 -224 175
-260 25 -36 92 -137 150 -225 58 -88 118 -180 135 -205 17 -25 66 -97 108
-160 42 -63 90 -132 105 -152 16 -20 44 -63 64 -95 19 -32 52 -80 74 -108 22
-27 73 -99 113 -160 41 -60 107 -157 147 -215 41 -58 106 -151 144 -207 39
-56 109 -156 156 -223 47 -67 109 -156 138 -198 29 -42 66 -93 81 -112 15 -19
54 -73 87 -120 32 -46 86 -123 121 -170 61 -83 106 -145 253 -345 81 -110 147
-198 285 -379 49 -66 105 -140 124 -165 19 -25 73 -93 119 -151 46 -58 125
-157 175 -220 51 -63 114 -138 141 -167 27 -29 46 -53 42 -53 -11 0 -130 91
-162 124 -17 17 -72 55 -122 85 -51 29 -92 57 -92 62 0 5 -6 9 -14 9 -19 0
-306 160 -306 171 0 5 -7 9 -17 9 -17 0 -175 82 -258 135 -27 17 -93 55 -145
84 -52 29 -133 75 -180 103 -47 28 -114 66 -150 85 -36 20 -74 43 -85 52 -25
20 -49 34 -145 83 -41 22 -87 52 -102 68 -14 16 -29 26 -32 23 -5 -6 -153 84
-252 154 -34 24 -64 43 -68 43 -13 0 -146 91 -146 100 0 5 -3 9 -8 8 -13 -5
-388 246 -441 295 -17 15 -33 27 -36 27 -11 0 -183 119 -213 148 -18 17 -57
45 -86 62 -30 16 -76 51 -104 77 -28 27 -70 60 -94 75 -24 14 -68 48 -99 75
-30 26 -86 71 -123 98 -38 28 -91 74 -120 104 -28 29 -75 67 -103 83 -30 17
-53 37 -53 46 0 18 -70 79 -128 113 -18 10 -37 29 -41 42 -13 30 -51 69 -106
107 -25 17 -45 39 -45 48 0 19 -77 97 -122 125 -16 10 -28 26 -28 36 0 10 -28
49 -62 85 -34 37 -67 78 -74 92 -7 13 -28 44 -47 67 -19 23 -38 53 -42 66 -4
13 -22 40 -40 60 -19 20 -59 93 -90 161 -31 69 -67 148 -81 175 -32 67 -130
349 -139 402 -3 23 -14 48 -23 55 -14 11 -15 10 -9 -5 4 -12 3 -17 -4 -15 -8
3 -46 92 -49 116 0 1 7 2 15 2 8 0 15 5 15 12 0 25 -63 275 -81 323 -10 28
-19 60 -19 72 0 12 -7 28 -15 36 -8 8 -11 18 -8 21 4 4 -3 13 -14 21 -15 10
-23 31 -28 72 -4 32 -13 76 -21 98 -8 22 -17 63 -20 91 -5 42 -3 52 10 57 13
5 15 11 7 25 -6 11 -15 50 -21 88 -14 90 -39 189 -58 233 -9 20 -15 42 -13 50
1 7 -2 10 -8 7 -10 -7 -19 30 -51 223 -25 155 -26 173 -3 164 17 -7 17 -6 0
20 -9 15 -15 27 -11 27 4 0 1 6 -5 14 -7 8 -11 36 -10 63 1 29 -4 61 -14 80
-19 37 -22 74 -6 90 7 7 2 27 -16 68 -22 50 -24 63 -15 97 9 30 8 43 -3 58 -8
11 -16 17 -20 14 -7 -7 -12 24 -26 146 -21 184 -24 240 -11 255 7 8 9 23 6 32
-6 15 -9 15 -17 3 -9 -13 -10 -12 -5 2 3 10 1 20 -4 23 -4 3 -12 36 -16 73 -4
37 -8 69 -9 72 -1 3 -4 19 -8 35 -6 26 -17 150 -43 455 -8 97 -8 102 1 123 5
12 3 17 -9 17 -12 0 -16 11 -17 48 -3 99 -8 157 -18 221 -18 117 -23 227 -11
215 6 -6 39 -58 74 -115z m31036 -318 c0 -5 -11 -11 -25 -13 -26 -5 -35 6 -12
15 20 9 37 8 37 -2z m2347 -74 c-15 -12 -47 -38 -72 -59 -24 -20 -61 -41 -82
-48 -21 -6 -47 -16 -58 -21 -20 -9 -177 -65 -391 -138 -61 -21 -121 -44 -135
-51 -13 -8 -25 -13 -26 -12 -2 1 -18 -5 -37 -13 -20 -8 -41 -15 -48 -15 -6 0
-30 -8 -52 -19 -40 -18 -81 -34 -81 -31 0 3 -90 -32 -109 -42 -11 -6 -51 -21
-89 -34 -39 -13 -78 -31 -88 -40 -10 -9 -22 -13 -28 -10 -6 4 -25 -1 -43 -10
-18 -10 -46 -21 -63 -25 -43 -10 -94 -29 -140 -50 -55 -24 -78 -33 -89 -30 -5
1 -16 -5 -25 -12 -9 -8 -34 -20 -56 -27 -22 -7 -57 -21 -77 -30 -27 -13 -38
-15 -42 -7 -5 9 -7 9 -12 0 -3 -7 -22 -17 -42 -23 -35 -11 -62 -22 -164 -70
-24 -10 -74 -29 -113 -40 -38 -12 -81 -27 -95 -34 -14 -7 -70 -30 -125 -50
-55 -21 -112 -44 -126 -52 -14 -7 -29 -11 -33 -7 -3 3 -6 2 -6 -4 0 -6 -12
-13 -27 -16 -16 -3 -41 -11 -58 -18 -16 -7 -32 -13 -35 -13 -38 -9 -106 -31
-110 -37 -7 -10 -84 -43 -142 -60 -27 -7 -48 -16 -48 -20 0 -3 -19 -12 -42
-19 -24 -8 -47 -17 -53 -20 -5 -4 -28 -13 -50 -19 -22 -7 -51 -17 -65 -23 -14
-6 -34 -14 -45 -18 -90 -33 -141 -55 -147 -63 -3 -6 -17 -11 -30 -13 -12 -1
-24 -3 -25 -3 -2 -1 -6 -1 -10 -2 -5 0 -15 -6 -23 -13 -8 -7 -28 -17 -45 -20
-16 -4 -43 -14 -60 -21 -16 -7 -57 -23 -90 -35 -33 -12 -75 -31 -92 -41 -18
-11 -36 -18 -41 -15 -5 3 -21 -2 -37 -10 -16 -8 -36 -14 -44 -13 -22 2 -61
-12 -61 -21 0 -10 -60 -31 -70 -25 -5 3 -10 0 -12 -5 -2 -6 -10 -12 -18 -14
-8 -1 -40 -14 -70 -28 -112 -52 -151 -68 -168 -71 -9 -2 -34 -11 -56 -20 -21
-9 -44 -17 -50 -17 -7 0 -17 -5 -24 -12 -7 -7 -12 -9 -12 -4 0 4 -10 0 -22 -8
-12 -9 -29 -16 -36 -16 -7 0 -20 -6 -28 -14 -8 -8 -34 -18 -59 -22 -25 -3 -45
-9 -45 -13 0 -6 -57 -31 -80 -36 -3 -1 -30 -13 -60 -27 -76 -36 -140 -59 -140
-51 0 3 -8 -1 -17 -9 -10 -8 -54 -27 -98 -42 -44 -15 -96 -36 -116 -47 -20
-10 -48 -19 -63 -19 -14 0 -26 -4 -26 -10 0 -5 -5 -10 -10 -10 -6 0 -40 -13
-75 -30 -35 -16 -68 -30 -72 -30 -5 0 -28 -11 -53 -24 -25 -13 -63 -29 -85
-36 -22 -7 -53 -18 -70 -25 -64 -26 -101 -37 -117 -37 -10 1 -18 -3 -18 -8 0
-10 -85 -50 -105 -50 -7 0 -18 -7 -25 -15 -8 -10 -21 -13 -38 -8 -17 4 -23 2
-18 -6 7 -10 -11 -16 -41 -12 -7 1 -13 -3 -13 -8 0 -6 -7 -8 -15 -5 -8 4 -17
-1 -21 -9 -3 -8 -23 -17 -45 -21 -21 -3 -39 -11 -39 -17 0 -5 -4 -7 -10 -4 -5
3 -10 2 -10 -2 0 -9 -66 -37 -74 -31 -2 2 -12 -4 -22 -13 -11 -9 -48 -26 -84
-39 -36 -12 -70 -26 -77 -32 -7 -5 -17 -7 -22 -4 -5 4 -12 2 -16 -4 -3 -5 -15
-10 -26 -10 -10 0 -19 -3 -19 -7 0 -5 -21 -16 -48 -27 -26 -10 -61 -24 -79
-32 -17 -8 -38 -14 -47 -14 -9 0 -16 -4 -16 -10 0 -5 -6 -10 -14 -10 -16 0
-98 -41 -107 -54 -4 -4 -9 -4 -13 2 -4 6 -21 3 -46 -9 -23 -11 -45 -17 -50
-14 -6 3 -10 -1 -10 -9 0 -9 -17 -20 -42 -28 -24 -7 -49 -18 -56 -25 -15 -14
-14 -14 -61 -18 -21 -2 -43 -13 -58 -30 -19 -20 -31 -25 -49 -21 -13 4 -24 2
-24 -4 0 -13 -67 -41 -83 -34 -7 2 -23 -5 -35 -16 -12 -12 -27 -18 -32 -15 -6
3 -10 1 -10 -5 0 -7 -7 -9 -17 -6 -10 4 -14 4 -10 0 4 -4 -18 -18 -50 -31 -44
-18 -59 -20 -65 -11 -5 9 -8 8 -8 -4 0 -12 -8 -18 -25 -18 -17 0 -25 -6 -26
-17 0 -11 -3 -13 -6 -6 -3 9 -17 6 -49 -13 -24 -14 -44 -23 -44 -19 0 3 -13
-3 -29 -14 -16 -12 -38 -21 -49 -21 -12 0 -24 -5 -27 -10 -8 -13 -72 -40 -95
-40 -10 0 -23 -7 -30 -15 -7 -8 -23 -15 -35 -15 -12 0 -28 -7 -35 -15 -7 -9
-15 -13 -18 -10 -3 3 -11 0 -19 -7 -7 -6 -16 -8 -19 -5 -4 3 -21 -4 -38 -17
-17 -12 -65 -33 -106 -47 -41 -13 -82 -32 -92 -41 -10 -10 -27 -18 -38 -18
-12 0 -32 -7 -45 -16 -13 -9 -28 -13 -34 -10 -5 4 -17 -1 -25 -10 -9 -8 -16
-12 -16 -8 0 4 -6 0 -13 -10 -7 -10 -28 -20 -46 -22 -18 -2 -45 -13 -61 -24
-15 -11 -34 -18 -42 -15 -7 3 -26 -6 -42 -20 -20 -17 -36 -23 -49 -19 -13 4
-17 2 -13 -5 4 -6 -1 -14 -11 -17 -10 -3 -26 -10 -35 -15 -10 -5 -23 -9 -29
-9 -6 0 -24 -9 -40 -21 -19 -13 -39 -19 -55 -16 -14 2 -28 -1 -32 -8 -9 -16
-86 -51 -129 -60 -18 -4 -33 -11 -33 -17 0 -6 -3 -8 -6 -5 -4 4 -19 -2 -33
-12 -34 -23 -144 -75 -201 -94 -25 -8 -84 -33 -132 -56 -49 -22 -88 -37 -88
-34 0 3 -8 -1 -17 -9 -10 -9 -29 -19 -43 -23 -31 -9 -102 -47 -113 -60 -6 -6
-10 -6 -14 3 -2 6 -10 12 -15 12 -6 0 -8 -3 -5 -7 9 -9 -52 -35 -65 -27 -5 3
-20 -6 -33 -20 -13 -14 -33 -26 -44 -26 -11 0 -22 -4 -25 -9 -4 -5 -38 -21
-77 -36 -39 -15 -73 -34 -76 -41 -3 -8 -9 -12 -13 -9 -11 7 -100 -25 -100 -36
0 -5 -11 -9 -24 -9 -14 0 -28 -5 -31 -11 -4 -6 -13 -8 -21 -5 -7 3 -17 -1 -21
-8 -11 -19 -162 -88 -175 -80 -7 4 -8 2 -4 -4 4 -8 0 -12 -11 -12 -11 0 -23
-4 -29 -10 -5 -5 -18 -11 -29 -13 -11 -2 -69 -27 -130 -56 -60 -29 -128 -60
-150 -68 -22 -9 -44 -20 -49 -25 -6 -4 -20 -8 -32 -8 -12 0 -27 -7 -34 -15 -7
-8 -19 -15 -26 -15 -8 0 -14 -4 -14 -9 0 -5 -8 -7 -19 -4 -11 3 -21 -2 -24
-11 -3 -8 -23 -18 -44 -22 -21 -4 -49 -15 -63 -24 -14 -10 -36 -21 -50 -25
-24 -7 -88 -36 -218 -96 -34 -17 -68 -27 -75 -23 -6 4 -9 4 -5 -1 7 -7 -38
-31 -127 -69 -22 -10 -56 -26 -76 -36 -20 -11 -38 -17 -41 -15 -3 3 -11 -1
-18 -10 -7 -8 -18 -15 -24 -15 -6 0 -31 -11 -56 -24 -25 -13 -70 -31 -100 -41
-30 -10 -62 -23 -70 -30 -8 -6 -33 -19 -55 -29 -22 -9 -52 -24 -67 -32 -14 -7
-33 -14 -41 -14 -8 0 -20 -6 -26 -14 -7 -8 -27 -18 -44 -22 -17 -3 -41 -13
-53 -20 -11 -8 -24 -11 -27 -7 -4 3 -7 1 -7 -5 0 -7 -8 -12 -17 -12 -10 0 -29
-9 -43 -20 -14 -11 -33 -20 -43 -20 -15 0 -58 -19 -117 -52 -8 -4 -26 -13 -40
-20 -163 -77 -213 -98 -217 -94 -5 4 -68 -23 -103 -45 -18 -11 -63 -30 -70
-30 -3 0 -12 -6 -20 -14 -16 -13 -122 -65 -134 -65 -8 0 -130 -55 -168 -75
-14 -8 -33 -15 -41 -15 -8 0 -20 -7 -27 -15 -7 -8 -21 -15 -31 -15 -10 0 -33
-9 -51 -20 -18 -11 -41 -20 -50 -20 -10 0 -18 -4 -18 -10 0 -5 -9 -10 -19 -10
-11 0 -21 -3 -23 -8 -4 -9 -133 -73 -154 -76 -8 -1 -20 -8 -26 -14 -7 -7 -18
-12 -26 -12 -8 0 -30 -9 -48 -21 -19 -11 -39 -17 -45 -13 -7 4 -9 3 -6 -2 3
-6 -22 -21 -56 -34 -34 -13 -65 -28 -68 -34 -4 -5 -14 -6 -22 -3 -9 3 -21 -1
-27 -9 -7 -8 -19 -14 -26 -14 -8 0 -14 -4 -14 -10 0 -5 -6 -10 -14 -10 -7 0
-34 -11 -60 -25 -26 -14 -52 -22 -58 -19 -7 4 -8 2 -4 -4 4 -7 -10 -16 -36
-23 -24 -7 -50 -18 -58 -24 -8 -6 -31 -18 -50 -25 -19 -7 -89 -39 -155 -70
-151 -72 -178 -84 -188 -82 -9 3 -63 -26 -89 -46 -9 -8 -22 -11 -29 -6 -8 4
-10 3 -5 -4 4 -7 3 -12 -3 -12 -5 0 -22 -5 -38 -12 -15 -6 -30 -12 -33 -13 -3
0 -20 -9 -38 -18 -18 -10 -37 -15 -42 -12 -6 3 -10 2 -10 -4 0 -13 -59 -45
-68 -37 -3 3 -11 -3 -19 -14 -8 -11 -19 -20 -24 -20 -6 0 -36 -12 -67 -26 -31
-15 -78 -33 -104 -40 -26 -8 -53 -20 -60 -27 -7 -6 -24 -17 -38 -24 -73 -35
-126 -57 -133 -55 -4 1 -17 -7 -29 -18 -12 -11 -25 -21 -30 -21 -14 -2 -22 -5
-53 -19 -16 -7 -36 -12 -42 -11 -7 1 -13 -3 -13 -10 0 -6 -7 -8 -17 -5 -10 4
-14 4 -10 0 10 -11 -29 -35 -46 -28 -9 3 -20 -3 -26 -15 -6 -11 -21 -23 -33
-26 -13 -4 -36 -13 -53 -20 -16 -7 -37 -16 -45 -19 -8 -3 -22 -10 -30 -15 -43
-24 -78 -39 -107 -46 -18 -3 -35 -11 -38 -16 -4 -5 -15 -9 -26 -9 -10 0 -19
-4 -19 -10 0 -5 -9 -10 -20 -10 -11 0 -20 -4 -20 -10 0 -5 -7 -10 -15 -10 -8
0 -15 -4 -15 -10 0 -5 -8 -10 -17 -11 -10 0 -31 -9 -48 -20 -41 -26 -77 -41
-83 -34 -3 3 -11 -4 -19 -15 -8 -11 -19 -20 -25 -20 -19 0 -257 -106 -268
-120 -3 -3 -21 -12 -40 -20 -19 -7 -42 -19 -50 -25 -8 -7 -25 -16 -38 -20 -12
-3 -85 -38 -161 -76 -77 -38 -144 -69 -149 -69 -6 0 -23 -11 -39 -24 -15 -13
-32 -24 -36 -24 -8 0 -57 -18 -92 -33 -52 -23 -81 -32 -94 -30 -7 1 -10 -2 -6
-8 3 -6 3 -11 -2 -12 -4 0 -17 -3 -28 -6 -11 -2 -28 -5 -37 -6 -9 -1 -14 -5
-12 -9 3 -4 -3 -8 -13 -8 -11 0 -23 -4 -28 -9 -6 -5 -48 -23 -95 -39 -47 -16
-116 -42 -155 -57 -38 -14 -81 -30 -95 -35 -14 -5 -63 -24 -109 -44 -47 -20
-86 -34 -88 -32 -4 3 311 156 652 316 138 65 358 169 490 232 132 64 272 130
310 147 39 18 115 53 170 78 55 25 150 69 210 98 116 56 140 67 410 193 255
119 289 135 425 197 69 31 152 70 185 85 121 58 411 193 455 212 25 11 128 59
230 106 206 95 276 128 430 197 58 26 141 64 185 85 98 46 375 173 590 270 88
39 171 77 185 85 14 7 108 50 209 95 101 45 191 85 200 90 14 8 258 118 396
180 28 12 129 58 225 102 224 102 258 118 355 161 44 19 152 68 240 107 88 40
169 76 180 80 11 4 58 26 105 47 47 22 123 57 170 77 47 21 103 46 125 56 22
10 78 35 125 56 47 20 112 50 145 65 33 15 114 51 180 79 66 29 179 78 250
110 72 32 204 90 295 130 91 39 188 83 216 96 28 13 54 24 57 24 3 0 38 15 79
34 64 29 276 122 463 203 33 14 78 34 100 43 83 37 132 59 205 90 41 18 93 40
115 50 22 10 69 30 105 45 36 14 85 35 110 47 106 47 130 58 230 101 58 26
134 58 170 72 36 15 83 35 105 45 22 10 101 44 175 75 74 31 164 69 200 85
141 61 376 160 382 160 4 0 37 14 75 31 37 16 77 34 88 38 11 5 58 25 105 44
47 20 128 54 180 75 52 22 160 67 240 100 186 78 516 213 1010 414 460 187
1794 717 2135 849 127 49 239 93 250 98 23 10 73 30 170 66 39 15 120 46 180
70 61 24 157 61 215 83 58 22 175 67 260 100 85 33 247 95 360 138 242 91 277
104 350 134 30 12 96 37 145 55 50 17 189 69 310 115 121 46 254 95 295 111
41 15 143 53 225 84 83 31 186 69 230 85 44 16 112 40 150 54 86 31 98 32 62
3z m-2787 -32 c-12 -15 -30 -12 -30 6 0 5 10 9 21 9 18 0 19 -2 9 -15z m-1660
-695 c-20 -13 -33 -13 -25 0 3 6 14 10 23 10 15 0 15 -2 2 -10z m-805 -249 c3
-5 1 -12 -5 -16 -5 -3 -10 1 -10 9 0 18 6 21 15 7z m-4120 -171 c3 -5 1 -10
-4 -10 -6 0 -11 5 -11 10 0 6 2 10 4 10 3 0 8 -4 11 -10z m3230 -260 c-3 -5
-12 -10 -18 -10 -7 0 -6 4 3 10 19 12 23 12 15 0z m-4560 -1910 c3 -5 -1 -10
-10 -10 -9 0 -13 5 -10 10 3 6 8 10 10 10 2 0 7 -4 10 -10z m-1225 -544 c0 -2
-7 -6 -15 -10 -8 -3 -15 -1 -15 4 0 6 7 10 15 10 8 0 15 -2 15 -4z m5665 -816
c-9 -16 -18 -30 -21 -30 -2 0 2 14 11 30 9 17 18 30 21 30 2 0 -2 -13 -11 -30z
m-74 -123 c-10 -9 -11 -8 -5 6 3 10 9 15 12 12 3 -3 0 -11 -7 -18z m-71 -121
c0 -2 -8 -10 -17 -17 -16 -13 -17 -12 -4 4 13 16 21 21 21 13z m-8010 -86 c-8
-5 -17 -7 -19 -4 -3 3 1 9 9 14 8 5 17 7 19 4 3 -3 -1 -9 -9 -14z m7951 -7
c-5 -10 -17 -27 -26 -38 -16 -19 -16 -19 -4 5 13 27 29 50 36 50 2 0 -1 -8 -6
-17z m-132 -210 c-12 -21 -29 -45 -37 -53 -16 -15 -7 1 34 65 26 39 28 29 3
-12z m-59 -93 c-6 -11 -13 -20 -16 -20 -2 0 0 9 6 20 6 11 13 20 16 20 2 0 0
-9 -6 -20z m-27 -43 c-55 -86 -96 -147 -99 -147 -3 0 1 10 7 23 19 35 89 137
95 137 3 0 1 -6 -3 -13z m-191 -291 c-121 -187 -223 -335 -241 -349 -8 -7 12
26 45 73 32 47 100 148 151 225 108 164 122 185 128 185 3 0 -35 -60 -83 -134z
m-8767 104 c3 -5 -3 -10 -15 -10 -12 0 -18 5 -15 10 3 6 10 10 15 10 5 0 12
-4 15 -10z m-815 -460 c0 -5 -7 -10 -16 -10 -8 0 -12 5 -9 10 3 6 10 10 16 10
5 0 9 -4 9 -10z m9324 -22 c-43 -75 -409 -578 -420 -578 -3 0 4 12 15 28 76
100 205 279 297 410 59 83 109 152 111 152 2 0 1 -6 -3 -12z m-455 -633 c-18
-25 -40 -51 -49 -58 -18 -14 -13 -7 40 61 44 56 50 54 9 -3z m-77 -102 c-64
-88 -252 -323 -259 -323 -2 0 2 8 9 18 28 41 262 332 265 332 3 0 -5 -12 -15
-27z m-8067 -203 c-3 -5 -10 -10 -16 -10 -5 0 -9 5 -9 10 0 6 7 10 16 10 8 0
12 -4 9 -10z m-2765 -40 c0 -5 -2 -10 -4 -10 -3 0 -8 5 -11 10 -3 6 -1 10 4
10 6 0 11 -4 11 -10z m2360 -74 c0 -2 -9 -6 -20 -9 -11 -3 -18 -1 -14 4 5 9
34 13 34 5z m8148 -98 c-34 -46 -69 -90 -78 -99 -9 -9 -77 -88 -151 -175 -74
-87 -177 -205 -229 -264 -52 -58 -117 -131 -145 -163 -64 -73 -738 -752 -788
-794 -22 -18 -42 -33 -47 -33 -8 0 -137 -117 -183 -167 -16 -18 -46 -41 -66
-51 -20 -11 -61 -43 -91 -72 -63 -59 -110 -95 -110 -83 0 4 -4 3 -8 -3 -14
-20 -133 -114 -145 -114 -7 0 -39 -25 -72 -55 -33 -30 -67 -55 -75 -55 -8 0
-21 -9 -28 -20 -7 -11 -18 -20 -26 -20 -7 0 -21 -9 -31 -20 -10 -11 -26 -20
-37 -20 -10 0 -18 -7 -18 -15 0 -8 -11 -17 -24 -21 -14 -3 -32 -14 -42 -25 -9
-10 -23 -19 -30 -19 -7 0 -20 -8 -30 -17 -10 -10 -25 -22 -34 -28 -56 -33
-129 -71 -155 -81 -16 -6 -29 -14 -27 -17 5 -16 1 -28 -8 -22 -10 6 -110 -43
-110 -55 0 -8 -34 -22 -58 -24 -7 -1 -17 -8 -22 -16 -5 -8 -10 -11 -10 -6 0 5
-8 2 -17 -6 -19 -15 -47 -29 -73 -34 -8 -2 -16 -8 -18 -14 -2 -5 -8 -7 -14 -4
-6 4 -19 -4 -29 -17 -13 -17 -19 -19 -19 -9 -1 12 -4 11 -15 -4 -7 -10 -18
-15 -24 -12 -5 4 -12 2 -16 -3 -3 -6 -13 -7 -22 -4 -10 4 -14 2 -10 -4 4 -6
-9 -20 -29 -32 -31 -19 -36 -19 -30 -5 4 11 -3 8 -20 -9 -19 -19 -34 -25 -55
-23 -16 2 -32 -1 -35 -5 -3 -5 -14 -5 -24 1 -15 8 -21 6 -30 -9 -10 -21 -45
-37 -69 -32 -7 1 -10 -2 -7 -7 3 -5 -6 -14 -20 -21 -31 -14 -37 -14 -29 0 4 6
-11 1 -34 -10 -22 -12 -44 -20 -48 -19 -5 0 -16 -2 -25 -5 -10 -4 -26 -10 -35
-14 -10 -3 -29 -7 -43 -7 -14 -1 -31 -6 -39 -10 -10 -6 -12 -5 -7 2 4 7 -7 6
-28 -3 -20 -8 -46 -15 -58 -15 -13 0 -48 -7 -78 -15 -71 -19 -261 -55 -325
-61 -57 -5 -245 -25 -290 -30 -184 -21 -788 -30 -970 -15 -60 6 -157 13 -215
16 -58 3 -152 11 -210 16 -58 6 -130 12 -160 15 -30 3 -93 9 -140 14 -47 6
-121 13 -165 16 -44 3 -84 9 -90 12 -5 3 -21 7 -35 8 -83 8 -144 17 -215 29
-44 8 -116 19 -160 25 -44 6 -100 15 -125 20 -25 5 -106 19 -180 30 -74 12
-160 28 -190 35 -30 7 -77 16 -103 20 -77 9 -244 44 -342 70 -49 13 -103 26
-120 28 -16 2 -37 7 -45 10 -8 3 -40 11 -70 16 -103 19 -235 50 -430 101 -107
27 -244 61 -304 75 -59 14 -133 34 -165 45 -31 10 -112 33 -180 50 -68 17
-136 37 -150 44 -14 7 -51 19 -81 26 -52 12 -203 53 -315 86 -27 8 -67 19 -87
24 -20 6 -61 18 -90 29 -29 10 -89 30 -133 44 -431 138 -612 197 -800 262
-425 147 -578 201 -665 235 -30 12 -131 50 -225 84 -93 35 -192 74 -220 88
-27 14 -65 28 -82 31 -18 4 -52 15 -75 25 -24 11 -77 32 -118 47 -41 15 -79
31 -85 35 -10 8 -174 76 -207 87 -19 6 -25 23 -8 23 5 0 7 6 4 14 -3 8 -34 22
-70 32 -60 18 -84 34 -48 34 9 0 161 -58 337 -129 177 -71 367 -145 422 -166
55 -20 134 -49 175 -65 41 -15 109 -40 150 -55 41 -15 89 -33 105 -40 66 -28
604 -215 617 -215 8 0 18 -4 24 -8 5 -5 41 -19 79 -31 39 -12 79 -26 90 -31
30 -12 434 -144 570 -185 66 -21 224 -68 350 -107 127 -38 259 -78 295 -89 36
-11 81 -24 100 -29 60 -15 102 -26 195 -53 249 -71 735 -195 985 -251 338 -76
469 -104 665 -141 105 -20 210 -40 235 -46 40 -8 274 -47 515 -84 50 -8 133
-19 185 -25 52 -6 140 -17 195 -25 55 -7 136 -16 180 -20 44 -3 107 -10 140
-15 109 -17 618 -40 893 -40 725 0 1216 71 1707 248 313 113 703 312 1020 520
727 478 1440 1141 2187 2032 67 80 139 166 161 193 62 75 53 55 -15 -35z
m-20152 -286 c-4 -3 -14 2 -24 12 -16 18 -16 18 6 6 13 -6 21 -14 18 -18z
m8844 7 c0 -5 -4 -9 -10 -9 -5 0 -10 7 -10 16 0 8 5 12 10 9 6 -3 10 -10 10
-16z m-3695 -1510 c15 -14 -7 -10 -35 7 l-25 15 25 -7 c14 -3 29 -10 35 -15z
m4060 -1619 c3 -5 2 -10 -4 -10 -5 0 -13 5 -16 10 -3 6 -2 10 4 10 5 0 13 -4
16 -10z"/>
</g>
</svg>
